<?xml version="1.0" standalone="no"?>
<!DOCTYPE svg PUBLIC "-//W3C//DTD SVG 20010904//EN"
 "http://www.w3.org/TR/2001/REC-SVG-20010904/DTD/svg10.dtd">
<svg version="1.0" xmlns="http://www.w3.org/2000/svg"
 width="512.000000pt" height="512.000000pt" viewBox="0 0 512.000000 512.000000"
 preserveAspectRatio="xMidYMid meet">
<metadata>
Created by potrace 1.11, written by Peter Selinger 2001-2013
</metadata>
<g transform="translate(0.000000,512.000000) scale(0.100000,-0.100000)"
fill="#000000" stroke="none">
<path d="M212 5085 c-82 -41 -142 -102 -181 -185 l-26 -55 0 -2280 0 -2280 29
-57 c33 -66 100 -138 160 -173 100 -58 -40 -55 2366 -55 2413 0 2266 -4 2369
57 61 35 127 107 159 173 l27 55 0 2280 0 2280 -26 55 c-39 83 -99 144 -181
185 l-71 35 -2277 0 -2277 0 -71 -35z m3861 -60 c205 -53 326 -227 327 -465 0
-232 -148 -422 -363 -461 -130 -24 -270 24 -374 129 -199 202 -167 579 62 737
100 69 228 91 348 60z m-1126 -251 c58 -43 58 -46 58 -444 l0 -365 -64 -100
c-35 -55 -70 -110 -78 -122 -17 -29 -34 -29 -59 -2 -18 20 -19 46 -24 413 l-5
391 -1225 3 c-1143 2 -1226 1 -1237 -15 -19 -25 -19 -1841 0 -1866 11 -16 94
-17 1237 -15 l1225 3 5 87 c3 48 9 90 13 94 19 19 196 -115 207 -156 4 -14 3
-65 -1 -115 -6 -83 -9 -91 -37 -116 -19 -17 -48 -30 -74 -34 -24 -3 -647 -5
-1385 -3 l-1341 3 -27 25 c-57 53 -55 0 -55 1157 0 676 4 1081 10 1104 12 41
45 76 86 89 16 5 638 8 1386 7 l1357 -2 28 -21z m-1079 -747 c548 -405 511
-381 564 -373 113 18 122 18 165 -6 23 -13 92 -60 154 -105 61 -46 117 -83
124 -83 7 0 15 21 19 53 10 74 52 194 88 249 68 107 189 190 337 230 64 18
103 21 255 20 135 0 182 -4 192 -14 7 -7 46 -72 86 -144 40 -72 81 -142 90
-155 l17 -24 19 22 c11 12 50 78 88 148 38 70 77 135 87 146 16 17 33 19 208
19 216 0 267 -9 389 -67 87 -42 193 -141 228 -213 57 -120 57 -119 57 -825 l0
-650 -24 -54 c-70 -155 -263 -159 -344 -7 -22 41 -22 47 -27 616 -3 316 -7
576 -8 578 -1 2 -21 2 -44 0 l-43 -3 -5 -1555 c-5 -1503 -6 -1556 -24 -1590
-34 -62 -68 -100 -115 -128 -39 -23 -57 -27 -121 -27 -83 0 -122 15 -178 69
-47 44 -70 94 -82 177 -7 45 -10 401 -10 947 1 516 -3 879 -8 884 -5 5 -25 8
-43 6 l-34 -3 -5 -935 c-5 -924 -5 -936 -26 -981 -101 -217 -372 -226 -470
-15 l-24 51 0 1527 c0 967 -4 1536 -10 1552 -8 22 -16 26 -49 26 -22 0 -43 -6
-48 -12 -4 -7 -10 -103 -13 -214 -5 -200 -5 -201 -33 -243 -55 -82 -172 -104
-267 -49 -22 13 -167 116 -323 229 -331 242 -331 243 -332 378 0 81 -1 85 -30
107 -16 13 -194 144 -395 290 -474 347 -508 372 -527 400 -14 22 -14 26 1 49
9 14 26 25 37 25 11 0 217 -145 457 -323z"/>
</g>
</svg>
