<?xml version="1.0" standalone="no"?>
<!DOCTYPE svg PUBLIC "-//W3C//DTD SVG 20010904//EN"
 "http://www.w3.org/TR/2001/REC-SVG-20010904/DTD/svg10.dtd">
<svg version="1.0" xmlns="http://www.w3.org/2000/svg"
 width="570.000000pt" height="570.000000pt" viewBox="0 0 570.000000 570.000000"
 preserveAspectRatio="xMidYMid meet">
<metadata>
Created by potrace 1.11, written by Peter Selinger 2001-2013
</metadata>
<g transform="translate(0.000000,570.000000) scale(0.100000,-0.100000)"
fill="#000000" stroke="none">
<path d="M243 5665 c-87 -43 -164 -120 -206 -205 l-32 -65 0 -2540 0 -2540 30
-59 c62 -123 184 -218 313 -245 75 -16 4929 -16 5004 0 130 27 256 125 314
244 l29 60 0 2540 0 2540 -32 66 c-43 87 -120 163 -208 205 l-69 34 -2537 0
-2536 0 -70 -35z m4290 -70 c218 -57 351 -231 364 -480 9 -173 -38 -304 -148
-417 -154 -158 -396 -186 -580 -67 -156 100 -248 286 -236 479 19 295 208 496
472 499 39 1 97 -6 128 -14z m-1250 -278 c15 -9 35 -32 44 -50 16 -29 18 -69
18 -442 0 -376 -1 -413 -18 -440 -54 -92 -154 -239 -163 -242 -6 -2 -22 5 -35
16 l-24 19 -5 434 c-3 238 -9 439 -13 446 -12 17 -2717 18 -2735 0 -17 -17
-17 -2079 0 -2096 9 -9 327 -12 1370 -12 1332 0 1357 0 1368 19 5 11 10 51 10
90 0 77 6 101 25 101 6 0 54 -30 104 -66 116 -83 121 -94 111 -228 -9 -117
-24 -143 -96 -168 -45 -16 -156 -17 -1551 -15 -1499 2 -1502 2 -1529 23 -15
11 -37 33 -48 48 -21 27 -21 33 -24 1244 l-2 1217 22 45 c45 88 -107 80 1618
78 1437 -3 1527 -4 1553 -21z m-1691 -478 c12 -6 235 -170 497 -363 604 -447
564 -420 609 -412 99 17 159 18 188 3 16 -8 90 -61 164 -116 74 -56 141 -100
149 -99 10 2 19 27 27 75 45 270 194 437 456 514 60 18 108 22 274 26 133 4
208 2 221 -5 11 -6 66 -93 122 -192 100 -176 103 -181 122 -164 10 9 58 89
106 176 66 121 95 164 117 175 24 13 64 14 235 10 232 -5 274 -14 411 -79 104
-50 212 -152 252 -238 63 -134 61 -109 66 -880 4 -778 3 -784 -58 -869 -79
-108 -254 -107 -329 2 -52 78 -52 70 -52 712 -1 330 -4 611 -8 625 -9 32 -51
48 -86 32 l-25 -12 0 -1713 c0 -1541 -2 -1718 -16 -1760 -21 -62 -96 -144
-159 -173 -141 -66 -323 12 -382 165 -17 43 -18 115 -23 1084 -4 908 -7 1039
-20 1047 -22 14 -67 12 -77 -2 -4 -7 -10 -479 -13 -1048 l-5 -1035 -33 -67
c-40 -82 -97 -133 -171 -155 -67 -19 -152 -13 -207 15 -51 26 -110 91 -138
151 l-21 46 -5 1725 c-3 949 -6 1726 -8 1728 -1 1 -25 2 -52 2 -45 0 -52 -3
-60 -26 -6 -14 -10 -114 -10 -222 0 -186 -2 -200 -24 -247 -28 -60 -49 -80
-105 -100 -115 -40 -144 -26 -516 244 -176 128 -333 245 -349 259 -48 45 -66
96 -66 196 0 84 -1 90 -27 112 -16 14 -233 173 -483 356 -250 182 -479 351
-507 375 -59 49 -65 73 -31 110 25 27 23 26 50 12z"/>
</g>
</svg>
